<?xml version="1.0" encoding="UTF-8" standalone="no"?>
<svg version="1.1" id="Layer_1" xmlns="http://www.w3.org/2000/svg" xmlns:xlink="http://www.w3.org/1999/xlink" x="0px" y="0px"
	 width="100%" viewBox="0 0 832 576" enableBackground="new 0 0 832 576" xml:space="preserve">
<path fill="#000000" opacity="1.000000" stroke="none" 
	d="
M312.308655,507.872498 
	C297.612000,499.245117 283.763855,490.140442 270.725861,479.621948 
	C258.855408,470.045319 247.947830,459.584473 238.039490,448.161102 
	C227.766617,436.317474 218.701920,423.387573 211.234100,409.602753 
	C203.819077,395.915436 196.756638,381.904816 192.175690,366.962128 
	C190.063660,360.072754 187.351654,353.291809 186.502975,345.961426 
	C186.079315,342.302032 184.136154,338.810974 182.823196,335.264893 
	C181.975800,332.976257 179.907242,333.394135 178.136719,333.378235 
	C172.675659,333.329224 167.213898,333.360382 160.370438,333.360382 
	C170.510300,310.439087 180.189331,288.559479 190.386703,265.508179 
	C205.526825,285.885162 217.696716,306.099854 231.324631,326.019806 
	C225.200729,328.262054 219.870270,329.508209 214.184540,329.128998 
	C210.793121,328.902771 209.856125,330.420624 210.763641,333.789551 
	C213.883453,345.371063 216.420929,357.133759 221.297745,368.160126 
	C224.090973,374.475586 226.387680,380.974213 229.928253,387.021484 
	C232.987762,392.247101 236.109528,397.483978 238.948730,402.802734 
	C242.412796,409.291992 246.982193,414.899902 251.286957,420.657623 
	C258.202301,429.907043 265.238495,439.150513 273.891327,446.961945 
	C281.829742,454.128387 290.219208,460.721741 298.556580,467.411133 
	C307.447266,474.544464 317.342987,479.894043 327.146606,485.252625 
	C336.440979,490.332825 346.554474,494.037659 356.571960,497.765930 
	C364.585571,500.748383 372.919250,502.622742 381.057373,505.015594 
	C387.709778,506.971558 395.054626,507.012512 401.997894,508.670410 
	C413.226593,511.351440 424.710480,510.382935 436.110626,510.710022 
	C447.127228,511.026123 457.626068,507.638245 468.421265,506.721344 
	C477.870148,505.918793 486.470978,502.103088 495.651184,500.412781 
	C500.931763,499.440460 505.920135,496.829834 511.008575,494.874878 
	C527.095276,488.694366 542.360413,480.713287 556.486450,471.020905 
	C563.854614,465.965393 571.429749,460.822571 577.773926,454.121155 
	C580.867798,450.853027 584.782532,448.114807 588.176575,444.942291 
	C600.118408,433.779938 609.829712,420.688171 618.772522,407.229309 
	C629.077454,391.720154 636.829834,374.722137 642.990662,357.053986 
	C647.170166,345.067871 649.059631,332.521820 652.490295,320.360626 
	C652.624939,319.883392 652.714844,319.382111 652.741638,318.887482 
	C653.774353,299.849701 656.310852,280.768127 654.425415,261.760498 
	C653.247192,249.882248 651.623230,237.957581 648.814148,226.162430 
	C646.902344,218.134903 644.199036,210.332794 642.394470,202.286697 
	C641.833496,199.785309 641.291321,195.885315 638.016235,195.755356 
	C635.050171,195.637650 634.466614,199.261368 633.343567,201.605667 
	C627.602905,213.589920 621.906982,225.595596 616.146362,237.570190 
	C615.392578,239.136902 614.853088,240.627594 615.819885,242.892761 
	C620.621033,243.152466 625.239746,241.044388 630.053589,240.341522 
	C632.550415,239.976944 635.577209,237.668091 637.457642,240.286316 
	C639.569214,243.226471 639.781982,247.192856 639.944458,250.808792 
	C640.032410,252.765289 637.767212,252.965393 636.145569,253.327835 
	C627.539307,255.251389 618.961243,257.314117 610.317749,259.051849 
	C606.715088,259.776123 604.432190,261.613312 602.656372,264.738220 
	C597.466187,273.871613 593.548706,283.598846 589.202393,293.120422 
	C582.993286,306.722839 576.496094,320.171295 569.587708,333.436066 
	C559.139160,353.498322 549.645691,374.016876 540.256104,394.601807 
	C535.518127,404.988922 529.248169,414.734894 524.885498,425.350708 
	C522.284790,431.679077 517.618164,436.798492 515.343567,443.312317 
	C513.526917,448.514648 509.078552,450.400787 503.772552,450.258270 
	C497.759552,450.096741 491.829376,450.869385 485.895325,451.459381 
	C491.052185,461.286377 493.349274,471.950104 496.945282,482.140961 
	C497.486389,483.674500 496.477997,484.504028 495.156250,485.231110 
	C487.337524,489.532562 485.676849,489.021088 482.757751,480.754120 
	C480.541534,474.477631 478.735168,468.054047 476.437164,461.809753 
	C475.251404,458.587646 474.642792,456.070221 478.820984,454.855011 
	C479.592041,454.630768 480.194672,453.931366 480.288330,452.780243 
	C479.447845,450.317566 477.199310,450.311523 475.045410,450.307861 
	C468.546906,450.296906 462.043335,450.211609 455.550934,450.429504 
	C447.852081,450.687897 446.802826,449.802826 447.011414,442.209503 
	C446.013336,440.593903 443.649872,441.851013 442.265411,439.242706 
	C445.137695,433.856354 448.225311,427.863495 451.493134,421.970612 
	C474.109924,381.185760 496.765289,340.422333 519.406189,299.650848 
	C545.462708,252.728638 571.524902,205.809662 597.556030,158.873383 
	C599.490540,155.385254 601.242554,151.792740 602.991699,148.205963 
	C604.727112,144.647385 603.521973,142.415497 599.442383,142.080948 
	C592.202576,141.487244 585.758606,140.695419 580.653381,149.024734 
	C577.148926,154.742294 571.129944,159.528610 566.254456,164.748642 
	C565.139038,165.942856 563.875122,167.037750 562.413208,165.853043 
	C559.316833,163.343704 556.328247,160.678604 553.499634,157.871582 
	C552.145691,156.527893 553.231873,155.070496 554.228638,153.893692 
	C555.950684,151.860550 557.740356,149.884460 559.452393,147.843079 
	C560.401184,146.711761 561.672180,145.561066 561.018799,143.895706 
	C560.259827,141.961319 558.372620,142.128143 556.731689,142.084244 
	C548.919800,141.875229 541.109680,141.214340 533.293457,142.069168 
	C517.858154,143.757248 502.355133,143.003845 486.882538,143.232285 
	C471.887390,143.453690 456.886841,143.375900 441.889069,143.321121 
	C433.892700,143.291931 429.930023,139.669266 429.756592,131.524216 
	C429.522552,120.532295 429.798035,109.528046 429.945496,98.530312 
	C429.994904,94.848160 431.275452,93.200409 435.611725,94.238876 
	C441.654449,95.686012 447.876282,94.072144 454.026917,93.992020 
	C489.510651,93.529831 524.994690,93.077225 560.476929,92.514160 
	C587.444275,92.086220 614.409607,91.523270 641.374390,90.954330 
	C645.206299,90.873474 647.295593,92.626152 650.320435,95.164505 
	C656.998596,100.768463 658.903442,108.091621 659.701355,115.371552 
	C660.765442,125.080444 664.674438,134.732315 661.416443,144.802887 
	C659.599243,150.419998 656.687195,155.455292 653.723267,160.406174 
	C650.729431,165.407150 648.764465,169.763214 653.046082,175.117905 
	C657.918274,181.211227 661.208191,188.510513 663.347900,195.764008 
	C665.250977,202.215607 668.025146,208.380356 669.892700,214.860535 
	C672.670288,224.498993 674.376648,234.425430 677.629761,243.921448 
	C677.897217,244.702301 678.201172,245.528000 678.203796,246.333771 
	C678.255493,262.386536 682.445984,278.134583 681.480408,294.294373 
	C680.977661,302.706787 680.422852,311.025421 678.572815,319.290283 
	C677.459229,324.264954 678.785461,329.542908 677.098938,334.609406 
	C672.680115,347.883575 670.522095,361.738831 665.334229,374.920685 
	C660.362122,387.554138 654.495300,399.647095 647.954834,411.398621 
	C643.400574,419.581451 638.022400,427.356018 632.325317,434.920898 
	C627.042236,441.936157 621.587097,448.799316 615.647644,455.175690 
	C604.923645,466.688477 593.370850,477.283447 580.675598,486.779358 
	C569.488281,495.147339 557.464172,501.898132 545.502930,508.898987 
	C532.843201,516.308655 518.954773,520.862000 505.250000,525.520264 
	C495.879364,528.705322 485.924957,530.577393 476.083649,532.573242 
	C450.805206,537.699890 425.379211,535.293335 400.094818,534.887268 
	C388.587982,534.702576 376.710236,531.738708 365.316956,527.995056 
	C357.184448,525.322876 348.838379,523.194763 340.689087,520.443298 
	C330.949371,517.154968 322.062958,512.007202 312.308655,507.872498 
z"/>
<path fill="#000000" opacity="1.000000" stroke="none" 
	d="
M280.502930,227.364166 
	C291.844055,223.715698 303.160675,221.776886 314.454437,219.736923 
	C314.945251,219.648270 315.450623,219.640778 315.942169,219.555099 
	C327.873596,217.475464 330.502228,214.491333 330.802399,202.368713 
	C330.917542,197.718445 331.046783,193.062897 329.766907,188.478409 
	C328.755341,184.854874 326.606873,182.798370 322.885468,182.195908 
	C314.909454,180.904709 306.942810,181.121460 299.019714,182.433548 
	C294.261322,183.221542 291.391449,186.214096 290.417267,190.997131 
	C289.686371,194.585449 288.925995,198.169876 288.070435,201.730026 
	C287.360962,204.682175 285.704987,206.897568 282.569550,207.567520 
	C274.055878,209.386642 265.710785,208.051453 257.420654,206.070129 
	C255.760864,205.673447 255.768906,204.180328 255.704437,202.843887 
	C255.275345,193.948593 256.035919,185.190628 259.223969,176.806381 
	C262.015686,169.464432 267.517578,164.879181 274.824554,162.371429 
	C296.898529,154.795670 319.373962,154.801117 341.790955,159.984161 
	C356.481964,163.380890 362.672760,174.637009 363.916229,188.701157 
	C364.794800,198.637985 364.574219,208.615341 362.769196,218.562225 
	C360.852844,229.122864 354.439606,235.152252 344.857330,238.733047 
	C332.751831,243.256760 319.994873,244.834900 307.431183,247.304413 
	C303.345673,248.107468 299.277649,248.960754 295.470673,250.771530 
	C292.917694,251.985809 291.189514,253.819153 290.281006,256.511047 
	C287.696442,264.169281 290.065277,267.888702 298.171814,267.611633 
	C313.990906,267.070984 329.807465,267.043274 345.628479,267.061829 
	C347.294403,267.063782 348.960327,267.061035 350.626221,267.051147 
	C364.308746,266.969818 366.548340,270.617889 364.687469,286.052155 
	C364.335876,288.968231 362.183868,290.606018 359.411591,291.459778 
	C356.804260,292.262756 354.125427,292.219910 351.478424,292.117310 
	C325.684753,291.117371 299.889648,290.875519 274.097534,292.031708 
	C268.679260,292.274597 263.539001,290.942108 258.292938,290.105347 
	C256.037231,289.745544 255.088715,288.502838 255.076202,286.410339 
	C255.004608,274.430664 254.540329,262.451233 256.089722,250.501816 
	C257.512726,239.526794 263.412537,232.615768 273.985199,229.554993 
	C276.057159,228.955185 278.080505,228.187347 280.502930,227.364166 
z"/>
<path fill="#000000" opacity="1.000000" stroke="none" 
	d="
M471.828003,157.804382 
	C478.822052,159.716141 480.256195,161.487045 480.273895,168.496872 
	C480.324402,188.490479 480.279694,208.484283 480.307739,228.477966 
	C480.310516,230.470016 480.605957,232.459915 480.676453,234.453964 
	C480.810303,238.241165 482.854248,239.964386 486.480225,240.719757 
	C495.346832,242.566910 499.594360,252.154129 495.244019,260.142181 
	C493.714050,262.951508 490.990173,263.668823 488.096619,264.028687 
	C481.504730,264.848480 480.565857,265.810822 480.332336,272.423920 
	C480.197144,276.251678 480.422180,280.098053 480.162231,283.914062 
	C479.815552,289.003204 477.629913,291.061462 472.517517,291.192017 
	C465.191376,291.379120 457.878662,291.191132 450.597443,290.114838 
	C447.752563,289.694336 446.550690,288.443298 446.643524,285.536041 
	C446.787048,281.042023 446.701447,276.539612 446.665558,272.041168 
	C446.610809,265.180420 444.891510,263.307495 438.159027,263.287750 
	C422.997345,263.243286 407.832031,263.160248 392.675171,263.452728 
	C387.615295,263.550415 382.754211,262.383301 377.770294,262.238556 
	C375.347809,262.168213 374.703552,260.713409 374.707825,258.603210 
	C374.722992,251.105515 374.739899,243.607574 374.687500,236.110199 
	C374.670898,233.734253 375.962372,232.024811 377.300171,230.324631 
	C395.120331,207.677124 412.834717,184.944397 430.882019,162.479202 
	C434.635834,157.806442 441.005676,157.685547 446.466888,157.308975 
	C454.747070,156.738098 463.115326,156.577881 471.828003,157.804382 
M439.215118,198.674271 
	C437.185059,201.311539 435.183075,203.970993 433.119812,206.582031 
	C425.895233,215.724701 418.588867,224.803528 411.440460,234.005219 
	C408.392792,237.928253 409.128876,240.394135 413.397186,240.520248 
	C422.382599,240.785706 431.382507,240.795197 440.370850,240.621002 
	C444.401367,240.542877 446.798981,238.380890 446.690369,233.930008 
	C446.560425,228.603714 446.675293,223.271591 446.671082,217.942001 
	C446.665833,211.280136 446.661469,204.618179 446.622498,197.956467 
	C446.614746,196.631348 446.628906,195.167282 445.093048,194.571106 
	C443.645660,194.009277 442.492432,194.802795 441.527588,195.768356 
	C440.826691,196.469727 440.273865,197.319031 439.215118,198.674271 
z"/>
<path fill="#000000" opacity="1.000000" stroke="none" 
	d="
M369.510925,312.209351 
	C366.933594,313.418732 366.250488,315.496979 365.754608,317.624268 
	C364.601440,322.571106 366.607056,325.005035 371.596405,324.658447 
	C375.248535,324.404816 378.883423,323.754242 382.535156,323.667511 
	C402.595001,323.191040 405.731445,332.976166 405.834076,347.331329 
	C405.944519,362.770569 398.560455,369.707275 383.075989,370.196167 
	C375.037018,370.449982 367.110535,369.660126 359.250977,368.082245 
	C349.818939,366.188660 346.342163,362.895905 344.961884,353.298370 
	C342.887421,338.874084 343.238953,324.420746 345.735168,310.049561 
	C346.657776,304.737762 349.251740,300.719452 354.855804,299.372437 
	C367.061859,296.438477 379.308929,294.302155 391.849701,297.375885 
	C398.464813,298.997223 402.531158,303.003326 404.231781,309.657104 
	C405.922028,316.270294 402.555908,320.612762 395.712555,319.965057 
	C392.423523,319.653809 389.185791,318.803894 385.923462,318.205383 
	C384.835907,318.005859 383.968140,317.425720 383.903717,316.314606 
	C383.557404,310.340607 379.384857,310.657013 375.250641,311.047089 
	C373.444244,311.217499 371.668243,311.710480 369.510925,312.209351 
M384.141205,350.509583 
	C385.646057,340.315796 383.482880,337.754486 373.948578,338.206085 
	C369.549042,338.414459 366.104095,339.701904 365.410767,344.670898 
	C364.692413,349.819305 367.099304,354.124908 371.329193,355.366852 
	C377.607178,357.210144 381.625824,355.905823 384.141205,350.509583 
z"/>
<path fill="#000000" opacity="1.000000" stroke="none" 
	d="
M445.184448,355.559448 
	C450.023285,351.911255 451.515381,337.789520 447.391174,334.516296 
	C443.672119,331.564728 438.686066,332.306274 434.995056,334.019623 
	C428.568207,337.002960 422.269989,337.127136 415.553162,336.322266 
	C412.542114,335.961456 410.894806,335.072479 410.909210,331.865662 
	C410.954041,321.872650 410.950836,311.879425 410.939178,301.886261 
	C410.936066,299.236023 412.137146,298.108490 414.834686,297.838531 
	C430.117676,296.309174 445.447266,297.062988 460.753357,296.807495 
	C464.898254,296.738312 467.728607,298.973236 467.994202,303.448212 
	C468.255707,307.854126 465.879974,310.851959 461.231079,311.053345 
	C454.252625,311.355652 447.249542,311.071564 440.256927,311.077148 
	C438.598724,311.078491 436.869507,310.972015 435.298920,311.389282 
	C432.853455,312.039001 431.085327,313.718597 431.408020,316.442261 
	C431.771271,319.508148 434.153748,319.845154 436.679718,319.562714 
	C441.947998,318.973602 447.140930,318.248016 452.535370,318.424286 
	C463.440308,318.780701 471.013062,328.663300 470.745300,341.180817 
	C470.709839,342.838806 470.465240,344.492645 470.436615,346.150452 
	C470.122528,364.339050 463.093567,367.533203 448.764252,369.862488 
	C439.330017,371.395996 429.818695,369.664856 420.625702,367.109985 
	C411.537415,364.584290 410.556671,357.903473 409.777161,350.003021 
	C409.623566,348.446289 410.422729,347.332153 411.997894,347.254944 
	C418.911957,346.915924 426.139618,344.233307 431.436768,352.036591 
	C434.420868,356.432465 439.871887,356.079041 445.184448,355.559448 
z"/>
<path fill="#000000" opacity="1.000000" stroke="none" 
	d="
M295.712799,368.458435 
	C280.975220,366.533417 278.820099,360.531799 277.835693,348.464569 
	C277.597992,345.550720 278.592712,343.327118 281.975616,343.772766 
	C285.715607,344.265411 288.377289,340.151703 292.830688,342.217224 
	C296.084259,343.726227 298.031708,345.153381 298.863495,348.564728 
	C300.362976,354.714508 311.629456,358.621155 316.530670,354.633331 
	C320.053375,351.767181 318.808105,347.602386 318.613953,343.877686 
	C318.445221,340.640686 315.795593,340.136780 313.250519,339.723145 
	C310.135651,339.216980 307.031342,338.410126 303.901062,338.290009 
	C299.144501,338.107452 299.943085,334.793854 299.808411,331.890259 
	C299.673706,328.986816 299.923248,326.394745 303.891754,326.699158 
	C306.441650,326.894775 308.812225,326.020874 311.233093,325.422333 
	C317.386505,323.900879 319.466003,320.208405 317.512848,314.163208 
	C317.089722,312.853455 316.419586,311.822601 315.010132,311.278595 
	C309.491516,309.148499 302.767334,311.847717 300.718872,317.310425 
	C299.212860,321.326538 296.335114,323.217255 292.291321,322.930664 
	C288.514771,322.662994 284.761719,321.884521 281.036621,321.139435 
	C278.907745,320.713593 278.829132,318.782440 278.986176,317.129639 
	C280.249390,303.831360 282.626129,300.092682 294.791443,297.781433 
	C303.641663,296.099945 312.715973,296.108521 321.647064,296.770142 
	C336.802765,297.892914 344.497375,312.619904 336.906982,325.994873 
	C334.519806,330.201324 334.305328,333.100525 337.044983,337.188049 
	C342.000000,344.580872 341.490814,352.837067 338.047394,360.616302 
	C334.892639,367.743439 327.884796,369.435547 320.960968,370.023499 
	C312.663055,370.728180 304.315399,370.563934 295.712799,368.458435 
z"/>
<path fill="#000000" opacity="1.000000" stroke="none" 
	d="
M527.287720,59.679520 
	C544.983582,66.847549 561.451843,75.498573 576.883118,86.407913 
	C576.309387,89.389343 574.232544,89.869469 571.777344,90.181053 
	C562.651306,91.339256 555.577881,87.111061 548.325378,82.307472 
	C537.585510,75.194084 526.267761,69.049736 514.292419,64.067352 
	C508.201416,61.533173 502.016083,59.241737 495.853912,56.966930 
	C487.084900,53.729797 478.120544,50.712658 468.673981,50.180046 
	C465.588745,50.006096 462.887329,48.772430 460.021240,48.119537 
	C452.929810,46.504097 445.712738,46.151115 438.586090,45.028236 
	C438.050415,44.943832 437.599731,44.319977 437.068024,43.915310 
	C444.018433,37.689922 505.436859,49.127968 527.287720,59.679520 
z"/>
<path fill="#000000" opacity="1.000000" stroke="none" 
	d="
M567.647583,396.553864 
	C571.328491,392.981110 573.989990,393.928192 577.072083,397.171814 
	C582.335449,402.710999 587.981812,407.895172 593.604370,413.079803 
	C595.940002,415.233521 596.055786,416.775360 593.786377,419.197479 
	C585.696899,427.831635 585.755310,427.943909 577.146790,420.142456 
	C573.082458,416.459137 569.272400,412.488190 565.118958,408.912567 
	C561.775513,406.034302 561.193848,403.483704 564.733826,400.387390 
	C565.825439,399.432587 566.489014,397.988495 567.647583,396.553864 
z"/>
<path fill="#000000" opacity="1.000000" stroke="none" 
	d="
M625.350403,361.432526 
	C629.111450,362.559814 630.380981,364.439728 628.516479,367.870667 
	C627.647278,369.470154 627.028870,371.218170 626.413818,372.940643 
	C625.439453,375.669281 623.993652,376.483612 621.091187,375.207794 
	C612.558716,371.457184 603.949890,367.873047 595.299561,364.401611 
	C591.826294,363.007721 590.847107,361.381775 592.461731,357.616577 
	C596.289124,348.691833 596.550232,348.465607 605.429443,352.570343 
	C611.913574,355.567841 618.475647,358.396576 625.350403,361.432526 
z"/>
<path fill="#000000" opacity="1.000000" stroke="none" 
	d="
M607.522949,305.265656 
	C609.808289,293.127319 608.623535,294.808502 618.769104,296.605652 
	C626.115845,297.906982 633.426575,299.450470 640.808228,300.500244 
	C644.821533,301.071014 645.852478,303.041443 645.102112,306.615692 
	C644.863159,307.753784 644.514526,308.888031 644.441589,310.038330 
	C644.160706,314.466705 642.101929,315.454102 637.805847,314.508942 
	C629.552979,312.693329 621.151978,311.561279 612.851929,309.942993 
	C610.498291,309.484100 607.041687,309.855438 607.522949,305.265656 
z"/>
<path fill="#000000" opacity="1.000000" stroke="none" 
	d="
M377.937134,454.316559 
	C388.889160,458.583313 388.873138,458.575531 383.956726,468.692261 
	C381.268372,474.224182 378.491486,479.721222 376.050812,485.362213 
	C374.623718,488.660522 372.997528,488.919006 369.922211,487.369995 
	C361.478516,483.117065 361.482391,483.276123 365.579742,474.539642 
	C367.405212,470.647339 369.192627,466.689056 370.451477,462.592926 
	C371.665741,458.641632 374.331665,456.291931 377.937134,454.316559 
z"/>
<path fill="#000000" opacity="1.000000" stroke="none" 
	d="
M294.974731,401.021240 
	C299.304565,406.792236 299.306885,406.795197 294.073425,410.869293 
	C288.173523,415.462158 282.132324,419.887238 276.424713,424.707489 
	C273.618225,427.077606 271.850189,426.709686 270.062592,423.869537 
	C269.974854,423.730103 269.852692,423.612213 269.745544,423.485168 
	C264.115540,416.811707 264.165344,416.366760 271.399231,411.476959 
	C275.126007,408.957825 278.030243,405.478333 281.409149,402.567291 
	C283.915863,400.407715 286.820770,399.625275 289.393890,397.973358 
	C292.414154,396.034332 293.253143,399.239594 294.974731,401.021240 
z"/>
<path fill="#000000" opacity="1.000000" stroke="none" 
	d="
M545.916626,447.121948 
	C546.609680,448.085602 547.086853,448.763580 547.570862,449.436646 
	C551.578247,455.009216 551.578613,455.008942 545.894897,459.229401 
	C540.534180,463.209991 540.552124,463.197113 536.753296,457.908386 
	C532.207825,451.580200 527.710266,445.214569 523.020874,438.994110 
	C521.193909,436.570587 521.527283,435.098175 523.857483,433.259247 
	C531.519653,427.212433 531.462158,427.138092 537.256470,435.147308 
	C540.073853,439.041687 542.888184,442.938354 545.916626,447.121948 
z"/>
<path fill="#000000" opacity="1.000000" stroke="none" 
	d="
M433.428345,471.506287 
	C433.910767,479.450317 432.596893,486.646759 430.149780,493.718475 
	C429.377991,495.948761 428.494263,497.220612 425.925323,496.612274 
	C424.157593,496.193695 422.333740,496.010864 420.534149,495.727875 
	C417.702209,495.282501 416.761993,493.952606 417.334259,490.898560 
	C418.706268,483.576874 419.668274,476.178070 420.780975,468.808167 
	C421.553345,463.692535 424.666748,460.404816 428.198608,461.009857 
	C433.205841,461.867645 434.770966,464.846039 433.428345,471.506287 
z"/>
<path fill="#000000" opacity="1.000000" stroke="none" 
	d="
M245.750793,357.699860 
	C249.080292,355.774780 252.028976,353.905823 255.122513,352.319305 
	C256.864532,351.425842 258.752655,348.630371 260.716553,350.872101 
	C263.064667,353.552307 265.356171,356.613861 265.846619,360.342957 
	C266.029449,361.733093 264.310333,362.376068 263.188995,363.042084 
	C255.918106,367.360687 248.585739,371.577698 241.367401,375.981842 
	C238.782349,377.559052 237.346893,377.033752 235.764252,374.528412 
	C230.956009,366.917114 230.862534,366.967194 238.234177,362.318878 
	C240.619003,360.815125 243.031021,359.354492 245.750793,357.699860 
z"/>
<path fill="#000000" opacity="1.000000" stroke="none" 
	d="
M315.136017,457.962097 
	C311.894104,455.871216 311.500061,453.828918 313.515167,450.725647 
	C317.866760,444.024231 321.943359,437.134979 325.898224,430.189209 
	C327.772308,426.897827 329.793579,426.539459 332.681763,428.701324 
	C333.877167,429.596191 335.184937,430.364014 336.511444,431.055664 
	C338.997314,432.351868 339.243195,433.910950 337.751892,436.290649 
	C333.152313,443.630432 328.693268,451.059052 324.234497,458.486084 
	C321.072205,463.753479 318.354034,458.682648 315.136017,457.962097 
z"/>
</svg>